<svg width="903" height="335" viewBox="0 0 903 335" fill="none" xmlns="http://www.w3.org/2000/svg">
<g filter="url(#filter0_d_6_80)">
<path d="M38 35C38 22.8497 47.8497 13 60 13H843C855.15 13 865 22.8497 865 35V173.296C865 185.446 855.15 195.296 843 195.296H548.82C536.669 195.296 526.82 205.146 526.82 217.296V250C526.82 262.15 516.97 272 504.82 272H451.5H60C47.8497 272 38 262.15 38 250V35Z" fill="white"/>
<path d="M60 13.5H843C854.874 13.5 864.5 23.1259 864.5 35V173.296C864.5 185.17 854.874 194.796 843 194.796H548.82C536.393 194.796 526.32 204.87 526.32 217.296V250C526.32 261.874 516.694 271.5 504.82 271.5H451.5H60C48.1259 271.5 38.5 261.874 38.5 250V35C38.5 23.1259 48.1259 13.5 60 13.5Z" stroke="#BAC1C6"/>
</g>
<defs>
<filter id="filter0_d_6_80" x="0" y="0" width="903" height="335" filterUnits="userSpaceOnUse" color-interpolation-filters="sRGB">
<feFlood flood-opacity="0" result="BackgroundImageFix"/>
<feColorMatrix in="SourceAlpha" type="matrix" values="0 0 0 0 0 0 0 0 0 0 0 0 0 0 0 0 0 0 127 0" result="hardAlpha"/>
<feMorphology radius="12" operator="erode" in="SourceAlpha" result="effect1_dropShadow_6_80"/>
<feOffset dy="25"/>
<feGaussianBlur stdDeviation="25"/>
<feComposite in2="hardAlpha" operator="out"/>
<feColorMatrix type="matrix" values="0 0 0 0 0 0 0 0 0 0 0 0 0 0 0 0 0 0 0.25 0"/>
<feBlend mode="normal" in2="BackgroundImageFix" result="effect1_dropShadow_6_80"/>
<feBlend mode="normal" in="SourceGraphic" in2="effect1_dropShadow_6_80" result="shape"/>
</filter>
</defs>
</svg>
